<?xml version="1.0" encoding="UTF-8" standalone="no"?>
<svg
   width="512"
   height="512"
   viewBox="0 0 512 512.00001"
   version="1.1"
   id="svg439"
   sodipodi:docname="VisionScreensApp_Refresh.svg"
   inkscape:version="1.2 (dc2aedaf03, 2022-05-15)"
   xmlns:inkscape="http://www.inkscape.org/namespaces/inkscape"
   xmlns:sodipodi="http://sodipodi.sourceforge.net/DTD/sodipodi-0.dtd"
   xmlns:xlink="http://www.w3.org/1999/xlink"
   xmlns="http://www.w3.org/2000/svg"
   xmlns:svg="http://www.w3.org/2000/svg">
  <sodipodi:namedview
     id="namedview441"
     pagecolor="#505050"
     bordercolor="#ffffff"
     borderopacity="1"
     inkscape:showpageshadow="0"
     inkscape:pageopacity="0"
     inkscape:pagecheckerboard="1"
     inkscape:deskcolor="#505050"
     showgrid="false"
     inkscape:zoom="0.58132176"
     inkscape:cx="-38.704899"
     inkscape:cy="401.67084"
     inkscape:window-width="2560"
     inkscape:window-height="1361"
     inkscape:window-x="-9"
     inkscape:window-y="-9"
     inkscape:window-maximized="1"
     inkscape:current-layer="svg439" />
  <defs
     id="defs418">
    <linearGradient
       gradientUnits="userSpaceOnUse"
       x1="242.49626"
       y1="0"
       x2="242.49626"
       y2="481.85101"
       id="gradient_1">
      <stop
         offset="0%"
         stop-color="#19DCD6"
         id="stop374" />
      <stop
         offset="100%"
         stop-color="#007EFB"
         id="stop376" />
    </linearGradient>
    <linearGradient
       gradientUnits="userSpaceOnUse"
       x1="203.33339"
       y1="63.333313"
       x2="203.33339"
       y2="446.85114"
       id="gradient_2">
      <stop
         offset="0%"
         stop-color="#035D75"
         id="stop379" />
      <stop
         offset="100%"
         stop-color="#002E68"
         id="stop381" />
    </linearGradient>
    <linearGradient
       gradientUnits="userSpaceOnUse"
       x1="0"
       y1="0"
       x2="403.62857"
       y2="382.32751"
       id="gradient_3">
      <stop
         offset="0%"
         stop-color="#AF5AF9"
         stop-opacity="0.98039216"
         id="stop384" />
      <stop
         offset="100%"
         stop-color="#532B9E"
         id="stop386" />
    </linearGradient>
    <linearGradient
       gradientUnits="userSpaceOnUse"
       x1="179.49998"
       y1="458.67459"
       x2="179.5"
       y2="-2.0049305e-05"
       id="gradient_4">
      <stop
         offset="0%"
         stop-color="#FFB44C"
         id="stop389" />
      <stop
         offset="100%"
         stop-color="#DC4119"
         id="stop391" />
    </linearGradient>
    <path
       d="M 33.1528,111.625 470.147,21.3773 q 0.652,-0.1346 1.31,-0.2329 0.659,-0.0983 1.321,-0.1599 0.663,-0.0617 1.328,-0.0865 0.665,-0.0248 1.331,-0.0127 0.665,0.012 1.329,0.061 0.664,0.0489 1.324,0.1346 0.66,0.0856 1.314,0.2077 0.654,0.1221 1.301,0.2803 0.646,0.1582 1.283,0.352 0.637,0.1937 1.262,0.4225 0.625,0.2288 1.236,0.4918 0.612,0.263 1.207,0.5596 0.596,0.2965 1.175,0.6256 0.578,0.3291 1.138,0.6897 0.559,0.3607 1.097,0.7518 0.539,0.3911 1.055,0.8114 0.516,0.4204 1.008,0.8687 0.492,0.4483 0.958,0.9232 0.467,0.4748 0.906,0.9748 0.439,0.5 0.85,1.0236 0.411,0.5236 0.792,1.0691 0.382,0.5455 0.732,1.1114 0.35,0.5658 0.669,1.1502 0.319,0.5844 0.604,1.1855 0.286,0.6011 0.538,1.2172 0.252,0.616 0.469,1.2451 0.217,0.6291 0.4,1.2692 0.182,0.6402 0.328,1.2894 0.147,0.6493 0.257,1.3056 0.11,0.6564 0.184,1.3179 0.073,0.6615 0.11,1.326 Q 499,44.2147 499,44.8803 V 469.087 q 0,0.649 -0.035,1.298 -0.035,0.648 -0.105,1.293 -0.07,0.645 -0.175,1.286 -0.105,0.641 -0.244,1.275 -0.14,0.634 -0.313,1.259 -0.174,0.626 -0.381,1.241 -0.207,0.616 -0.446,1.219 -0.24,0.603 -0.513,1.192 -0.272,0.59 -0.576,1.164 -0.303,0.573 -0.638,1.13 -0.334,0.556 -0.698,1.094 -0.363,0.538 -0.756,1.055 -0.392,0.517 -0.812,1.012 -0.42,0.495 -0.866,0.967 -0.446,0.472 -0.916,0.919 -0.471,0.447 -0.966,0.868 -0.494,0.421 -1.01,0.814 -0.516,0.394 -1.053,0.759 -0.537,0.365 -1.093,0.7 -0.555,0.336 -1.129,0.641 -0.573,0.305 -1.161,0.578 -0.589,0.274 -1.192,0.515 -0.602,0.242 -1.217,0.45 -0.615,0.208 -1.24,0.383 -0.625,0.175 -1.259,0.316 -0.634,0.141 -1.274,0.247 -0.641,0.106 -1.286,0.178 -0.645,0.071 -1.293,0.108 -0.649,0.037 -1.298,0.038 -0.649,0.002 -1.297,-0.032 -0.648,-0.034 -1.294,-0.102 -0.646,-0.069 -1.286,-0.172 L 34.183,422.256 q -0.5223,-0.084 -1.0404,-0.192 -0.5182,-0.107 -1.0311,-0.237 -0.5129,-0.13 -1.0195,-0.282 -0.5067,-0.153 -1.0062,-0.327 -0.4994,-0.175 -0.9907,-0.371 -0.4913,-0.197 -0.9734,-0.415 -0.4822,-0.218 -0.9543,-0.457 -0.472,-0.239 -0.9331,-0.498 -0.4611,-0.26 -0.9103,-0.539 -0.4492,-0.28 -0.8856,-0.579 -0.4364,-0.299 -0.8593,-0.617 -0.4228,-0.319 -0.8312,-0.655 -0.4084,-0.336 -0.8015,-0.69 -0.3932,-0.354 -0.7704,-0.726 -0.3772,-0.371 -0.7376,-0.758 -0.3605,-0.387 -0.7036,-0.79 -0.343,-0.403 -0.6679,-0.821 -0.325,-0.417 -0.6312,-0.849 -0.3063,-0.431 -0.5932,-0.876 -0.2869,-0.444 -0.554,-0.901 -0.267,-0.457 -0.5137,-0.925 -0.2466,-0.468 -0.4724,-0.946 -0.2258,-0.479 -0.4303,-0.967 -0.2044,-0.488 -0.3872,-0.985 -0.1828,-0.496 -0.3435,-1 -0.1607,-0.504 -0.299,-1.015 -0.1384,-0.511 -0.2541,-1.027 -0.1157,-0.516 -0.2085,-1.037 -0.0928,-0.521 -0.1626,-1.046 -0.0698,-0.524 -0.1164,-1.051 -0.0466,-0.527 -0.0699,-1.056 -0.0233,-0.528 -0.0233,-1.057 V 135.128 q 0,-0.513 0.0219,-1.025 0.0219,-0.513 0.0657,-1.023 0.0437,-0.511 0.1093,-1.02 0.0655,-0.508 0.1527,-1.014 0.0872,-0.505 0.1959,-1.006 0.1087,-0.501 0.2387,-0.997 0.13,-0.496 0.281,-0.986 0.1511,-0.49 0.323,-0.973 0.1718,-0.483 0.3641,-0.958 0.1924,-0.476 0.4048,-0.942 0.2125,-0.467 0.4447,-0.924 0.2322,-0.457 0.4837,-0.904 0.2515,-0.447 0.5218,-0.883 0.2704,-0.435 0.5591,-0.859 0.2887,-0.424 0.5953,-0.835 0.3065,-0.411 0.6303,-0.808 0.3239,-0.398 0.6644,-0.781 0.3405,-0.383 0.697,-0.752 0.3566,-0.368 0.7286,-0.721 0.372,-0.353 0.7587,-0.69 0.3867,-0.336 0.7874,-0.656 0.4008,-0.32 0.8148,-0.623 0.4141,-0.302 0.8406,-0.586 0.4266,-0.285 0.8649,-0.551 0.4384,-0.266 0.8877,-0.513 0.4493,-0.247 0.9087,-0.475 0.4595,-0.227 0.9282,-0.435 0.4687,-0.208 0.9459,-0.395 0.4772,-0.188 0.962,-0.355 0.4847,-0.167 0.9762,-0.313 0.4915,-0.146 0.9887,-0.272 0.4973,-0.125 0.9994,-0.228 z"
       id="path_1" />
    <path
       d="M 457.629,64 291.043,446.328 H 221.132 L 54,64 H 154.294 L 255.248,370.525 371.732,64 Z"
       id="path_2" />
    <rect
       width="512"
       height="512"
       id="artboard_1"
       x="0"
       y="0" />
    <clipPath
       id="clip_2">
      <use
         xlink:href="#path_1"
         id="use415" />
    </clipPath>
    <clipPath
       clipPathUnits="userSpaceOnUse"
       id="clipPath453">
      <use
         xlink:href="#artboard_1"
         clip-rule="evenodd"
         id="use455" />
    </clipPath>
    <clipPath
       clipPathUnits="userSpaceOnUse"
       id="clipPath457">
      <use
         xlink:href="#artboard_1"
         clip-rule="evenodd"
         id="use459" />
    </clipPath>
    <clipPath
       clipPathUnits="userSpaceOnUse"
       id="clipPath461">
      <use
         xlink:href="#artboard_1"
         clip-rule="evenodd"
         id="use463" />
    </clipPath>
    <clipPath
       clipPathUnits="userSpaceOnUse"
       id="clipPath465">
      <use
         xlink:href="#artboard_1"
         clip-rule="evenodd"
         id="use467" />
    </clipPath>
    <filter
       style="color-interpolation-filters:sRGB"
       id="filter536"
       inkscape:label="filter1"
       x="-0.12465229"
       y="-0.10671465"
       width="1.2492154"
       height="1.2134293">
      <feFlood
         id="feFlood540"
         flood-opacity="0" />
      <feColorMatrix
         id="feColorMatrix544"
         values="0.0000000 0.0000000 0.0000000 0.0000000 0.0000000 0.0000000 0.0000000 0.0000000 0.0000000 0.0000000 0.0000000 0.0000000 0.0000000 0.0000000 0.0000000 0.0000000 0.0000000 0.0000000 127.00000 0.0000000 "
         in="SourceAlpha" />
      <feOffset
         dx="0"
         dy="0"
         id="feOffset546" />
      <feGaussianBlur
         stdDeviation="9.5"
         id="feGaussianBlur548" />
      <feColorMatrix
         id="feColorMatrix550"
         values="0.0000000 0.0000000 0.0000000 0.0000000 0.0000000 0.0000000 0.0000000 0.0000000 0.0000000 0.0000000 0.0000000 0.0000000 0.0000000 0.0000000 0.0000000 0.0000000 0.0000000 0.0000000 0.22000000 0.0000000 " />
      <feBlend
         mode="normal"
         in2="SourceGraphic"
         id="feBlend538"
         result="result1" />
      <feBlend
         mode="normal"
         in2="result1"
         id="feBlend552"
         in="SourceGraphic" />
    </filter>
  </defs>
  <use
     xlink:href="#artboard_1"
     stroke="none"
     fill="#ffffff"
     id="use420"
     transform="translate(309.8665,176.96384)"
     clip-path="url(#clipPath465)"
     style="display:none" />
  <path
     d="m 16.999,0 h 478.002 q 0.417,0 0.834,0.020476 0.417,0.0204761 0.832,0.0613788 0.415,0.0409032 0.828,0.1021332 0.413,0.061231 0.822,0.142643 0.41,0.081412 0.814,0.182808 0.405,0.101396 0.805,0.222532 0.399,0.121137 0.792,0.261721 0.393,0.140588 0.778,0.300278 0.386,0.1597 0.763,0.33812 0.377,0.17842 0.745,0.37513 0.368,0.19672 0.726,0.41125 0.358,0.21454 0.705,0.44638 0.347,0.23184 0.682,0.48043 0.335,0.24858 0.658,0.51332 0.323,0.26473 0.632,0.54497 0.309,0.28025 0.604,0.57532 0.295,0.29508 0.575,0.60428 0.281,0.3092 0.545,0.63178 0.265,0.32258 0.514,0.65776 0.248,0.33518 0.48,0.68215 0.232,0.34697 0.446,0.70491 0.215,0.35793 0.412,0.72596 0.196,0.36802 0.375,0.74526 0.178,0.37721 0.338,0.76281 0.16,0.3855 0.3,0.7784 0.141,0.3929 0.262,0.7923 0.121,0.3993 0.223,0.8041 0.101,0.4048 0.182,0.8141 0.082,0.4092 0.143,0.822 0.061,0.4128 0.102,0.8281 0.041,0.4153 0.062,0.8321 0.02,0.4168 0.02,0.8341 v 478.002 q 0,0.417 -0.021,0.834 -0.02,0.417 -0.061,0.832 -0.041,0.415 -0.102,0.828 -0.061,0.413 -0.143,0.822 -0.081,0.41 -0.183,0.814 -0.101,0.405 -0.222,0.805 -0.121,0.399 -0.262,0.792 -0.14,0.393 -0.3,0.778 -0.16,0.386 -0.338,0.763 -0.179,0.377 -0.375,0.745 -0.197,0.368 -0.412,0.726 -0.214,0.358 -0.446,0.705 -0.232,0.347 -0.48,0.682 -0.249,0.335 -0.514,0.658 -0.264,0.323 -0.545,0.632 -0.28,0.309 -0.575,0.604 -0.295,0.295 -0.604,0.575 -0.309,0.281 -0.632,0.545 -0.323,0.265 -0.658,0.514 -0.335,0.248 -0.682,0.48 -0.347,0.232 -0.705,0.446 -0.358,0.215 -0.726,0.412 -0.368,0.196 -0.745,0.375 -0.377,0.178 -0.763,0.338 -0.385,0.16 -0.778,0.3 -0.393,0.141 -0.792,0.262 -0.4,0.121 -0.805,0.223 -0.404,0.101 -0.814,0.182 -0.409,0.082 -0.822,0.143 -0.413,0.061 -0.828,0.102 -0.415,0.041 -0.832,0.062 -0.417,0.02 -0.834,0.02 H 16.999 q -0.4173,0 -0.8341,-0.02 -0.4168,-0.021 -0.8321,-0.062 -0.4153,-0.041 -0.8281,-0.102 -0.4128,-0.061 -0.822,-0.143 -0.4093,-0.081 -0.8141,-0.182 -0.4048,-0.102 -0.8041,-0.223 -0.3994,-0.121 -0.7923,-0.262 -0.3929,-0.14 -0.7784,-0.3 -0.3856,-0.16 -0.76281,-0.338 -0.37724,-0.179 -0.74526,-0.375 -0.36803,-0.197 -0.72596,-0.412 -0.35794,-0.214 -0.70491,-0.446 -0.34697,-0.232 -0.68215,-0.48 -0.33518,-0.249 -0.65776,-0.514 -0.32258,-0.264 -0.63178,-0.545 -0.3092,-0.28 -0.60428,-0.575 -0.29507,-0.295 -0.57532,-0.604 -0.28024,-0.309 -0.54497,-0.632 -0.26474,-0.323 -0.51332,-0.658 -0.24859,-0.335 -0.48043,-0.682 -0.23184,-0.347 -0.44638,-0.705 -0.21453,-0.358 -0.41125,-0.726 -0.19671,-0.368 -0.37513,-0.745 -0.17842,-0.377 -0.33812,-0.763 -0.15969,-0.385 -0.300278,-0.778 -0.140584,-0.393 -0.261721,-0.792 -0.121136,-0.4 -0.222532,-0.805 -0.101396,-0.404 -0.182808,-0.814 -0.081412,-0.409 -0.142643,-0.822 -0.06123,-0.413 -0.1021332,-0.828 Q 0.0409521,496.252 0.020476,495.835 0,495.418 0,495.001 V 16.999 Q 0,16.5817 0.020476,16.1649 0.0409521,15.7481 0.0818548,15.3328 0.122758,14.9175 0.183988,14.5047 0.245219,14.0919 0.326631,13.6827 0.408043,13.2734 0.509439,12.8686 0.610835,12.4638 0.731971,12.0645 0.853108,11.6651 0.993692,11.2722 1.13428,10.8793 1.29397,10.4938 1.45367,10.1082 1.63209,9.73099 1.81051,9.35375 2.00722,8.98573 2.20394,8.6177 2.41847,8.25977 2.63301,7.90183 2.86485,7.55486 3.09669,7.20789 3.34528,6.87271 3.59386,6.53753 3.8586,6.21495 4.12333,5.89237 4.40357,5.58317 4.68382,5.27397 4.97889,4.97889 5.27397,4.68382 5.58317,4.40357 5.89237,4.12333 6.21495,3.8586 6.53753,3.59386 6.87271,3.34528 7.20789,3.09669 7.55486,2.86485 7.90183,2.63301 8.25977,2.41847 8.6177,2.20394 8.98573,2.00722 9.35375,1.81051 9.73099,1.63209 10.1082,1.45367 10.4938,1.29397 10.8793,1.13428 11.2722,0.993692 11.6651,0.853108 12.0645,0.731971 12.4638,0.610835 12.8686,0.509439 13.2734,0.408043 13.6827,0.326631 14.0919,0.245219 14.5047,0.183988 14.9175,0.122758 15.3328,0.0818548 15.7481,0.0409521 16.1649,0.020476 16.5817,0 16.999,0 Z"
     id="Rectangle-2"
     fill="#f2f2f2"
     fill-rule="evenodd"
     stroke="none"
     artboard="751281ed-e80f-449d-9973-943445038b3a"
     transform="translate(309.8665,176.96384)"
     clip-path="url(#clipPath461)"
     style="display:none" />
  <g
     id="Vector-2"
     artboard="10932221-6739-4ae9-a2ae-c1d03a0093c5"
     transform="translate(-0.5038,-0.98372168)"
     clip-path="url(#clipPath457)">
    <use
       stroke="none"
       fill="url(#gradient_1)"
       xlink:href="#path_1"
       fill-rule="evenodd"
       id="use423"
       style="display:inline;fill:url(#gradient_1)" />
    <g
       clip-path="url(#clip_2)"
       id="g427">
      <use
         xlink:href="#path_1"
         fill="none"
         stroke="url(#gradient_2)"
         stroke-width="52"
         stroke-linecap="round"
         stroke-linejoin="round"
         id="use425"
         style="display:inline;stroke:url(#gradient_2)" />
    </g>
  </g>
  <g
     id="V"
     filter="url(#filter_1)"
     artboard="8bb8e4e0-2490-4999-9642-0ffe0e0852f7"
     transform="translate(0.20350453,0.8359943)"
     clip-path="url(#clipPath453)"
     style="display:inline;filter:url(#filter536)">
    <use
       xlink:href="#path_2"
       fill="none"
       stroke="#ffffff"
       stroke-width="36"
       id="use430" />
    <use
       stroke="none"
       fill="url(#gradient_3)"
       xlink:href="#path_2"
       fill-rule="evenodd"
       id="use432"
       style="display:inline;fill:url(#gradient_3)"
       inkscape:label="use432" />
  </g>
</svg>
